<svg width="19" height="19" viewBox="0 0 19 19" fill="none" xmlns="http://www.w3.org/2000/svg">
<path d="M13.8736 13.9964C13.3227 13.9827 12.7848 13.9827 12.2339 13.9964C12.1159 13.9964 12.0897 13.969 12.0897 13.8458C12.0897 12.8325 12.0897 11.8055 12.0897 10.7922C12.0897 10.5595 12.0765 10.3267 12.011 10.1076C11.8142 9.39556 11.0272 9.13539 10.4631 9.61464C10.1614 9.86112 10.0434 10.2034 10.0434 10.6142C10.0434 11.5727 10.0434 12.5313 10.0434 13.4898C10.0434 13.613 10.0303 13.7363 10.0434 13.8732C10.0565 13.9827 10.004 14.0101 9.91221 13.9964C9.34818 13.9964 8.79726 13.9964 8.23322 13.9964C8.12829 13.9964 8.10205 13.969 8.10205 13.8595C8.11517 12.9968 8.11517 12.1342 8.11517 11.2578C8.11517 10.1897 8.11517 9.1217 8.10205 8.06734C8.10205 7.9441 8.12829 7.91671 8.23322 7.91671C8.79726 7.91671 9.34818 7.91671 9.91221 7.91671C10.0171 7.91671 10.0434 7.9441 10.0434 8.05364C10.0434 8.27273 10.0434 8.49182 10.0434 8.75199C10.0827 8.71091 10.0959 8.69721 10.109 8.68352C10.6205 7.90302 11.342 7.68393 12.1946 7.82086C13.1784 7.98518 13.808 8.69721 13.9654 9.79265C14.0048 10.0528 14.0178 10.313 14.0178 10.5732C14.0178 11.6686 14.0178 12.7504 14.0178 13.8458C14.0178 13.9553 13.9916 13.9964 13.8736 13.9964Z" fill="#161616"/>
<path d="M7.05273 10.9568C7.05273 11.9153 7.05273 12.8738 7.05273 13.8323C7.05273 13.9556 7.02649 13.9967 6.90844 13.9967C6.35752 13.983 5.8066 13.9967 5.25568 13.9967C5.15075 13.9967 5.12451 13.9693 5.12451 13.8597C5.12451 11.929 5.12451 9.98463 5.12451 8.05392C5.12451 7.95807 5.15075 7.91699 5.25568 7.91699C5.81972 7.91699 6.38375 7.91699 6.94779 7.91699C7.06584 7.91699 7.07896 7.95807 7.07896 8.06762C7.05273 9.02612 7.05273 9.98463 7.05273 10.9568Z" fill="#161616"/>
<path d="M7.14436 6.32876C7.01319 6.87648 6.47539 7.19142 5.85888 7.08188C5.20302 6.97233 4.83574 6.30137 5.07185 5.64411C5.22926 5.23332 5.60965 4.98685 6.09499 5.00054C6.82955 4.98685 7.31488 5.60303 7.14436 6.32876Z" fill="#161616"/>
</svg>
